<?xml version="1.0"?><svg width="640" height="480" xmlns="http://www.w3.org/2000/svg">
 <title>*RedHack*</title>
 <metadata id="metadata5774">image/svg+xml</metadata>
 <g>
  <title>Layer 1</title>
  <path fill="black" id="path5842" d="m203.544754,645.21637l35.334244,-102.623108c-15.003983,9.343994 -31.23761,16.530579 -47.945755,22.37738c-4.5952,1.390808 -4.692719,1.177795 -3.347229,-7.311829c0.762253,-4.809387 2.666031,-13.849426 4.230637,-20.088867c3.973465,-15.845642 3.837585,-16.405701 -3.108704,-12.813599c-6.632568,3.42981 -36.76944,11.0578 -43.774048,11.079712l-4.50499,0.014099l4.814529,-12.791016c2.64798,-7.035034 6.324707,-15.711395 8.170486,-19.280731c1.845779,-3.569366 3.063171,-6.777924 2.705292,-7.130157c-0.357864,-0.352234 -5.172913,0.158813 -10.700119,1.135651c-13.465164,2.37973 -48.032661,5.7211 -49.044518,4.740723c-1.464104,-1.418518 14.363892,-23.712708 24.275597,-34.192902l9.730148,-10.288208l-20.619072,-1.132721c-18.20549,-1.000122 -49.018875,-6.072357 -51.409023,-8.462494c-2.005409,-2.005402 13.018467,-12.893707 39.834454,-28.869293c2.348999,-1.399414 1.259247,-2.534302 -4.934265,-5.138672c-13.108536,-5.512115 -28.422028,-18.429443 -38.36253,-32.359802c-8.609009,-12.064453 -20.835899,-36.891754 -20.965321,-42.571106c-0.033447,-1.467743 4.957542,-0.113831 12.965782,3.517303c7.161079,3.246979 13.43792,5.903625 13.948528,5.903625c0.510612,0 -3.032757,-7.461731 -7.874149,-16.581604c-11.851349,-22.324768 -18.870129,-47.4617 -20.446609,-73.227203c-1.425341,-23.295486 -0.357071,-24.885025 8.937622,-13.298935l5.965557,7.436234l-1.000587,-19.129395c-0.994141,-19.005951 2.460499,-59.655182 5.320789,-62.607559c0.82222,-0.848694 4.429348,2.542999 8.015831,7.537094c3.586479,4.994095 6.690788,9.077362 6.89846,9.073929c0.207664,-0.003418 0.563049,-5.656235 0.789726,-12.561813c0.404205,-12.313568 9.32325,-51.187828 12.474014,-54.368805c0.880051,-0.888489 3.649284,3.148079 6.153877,8.970139l4.553787,10.585571l6.483673,-18.159149c9.787201,-27.411491 24.90564,-55.346695 34.069382,-62.951912c2.761444,-2.29179 3.184448,-1.97607 3.184448,2.376732c0,2.760765 0.567276,7.855965 1.26062,11.322655l1.260605,6.30307l16.078293,-17.184845c25.067352,-26.792572 45.030884,-36.126812 64.793564,-46.822441c11.693329,-6.32847 29.401169,-11.88672 28.484665,-10.29717c-0.571533,0.99124 -3.546402,4.315549 -7.636169,10.185669c-19.120361,27.44383 -37.784164,58.040044 -47.092575,89.442624c-6.917099,23.335289 -8.783966,57.856331 -4.184692,77.380699c7.299927,30.988815 18.616714,48.344223 57.435394,88.082825c30.449219,31.170837 40.342072,46.030151 40.342072,60.594757c0,10.707184 -2.658417,16.491425 -12.0065,26.123993c-4.484283,4.620728 -8.702118,10.588379 -9.373016,13.261475c-1.942596,7.739868 0.588287,18.071686 6.242798,25.485138c5.120941,6.713898 20.728607,18.452423 22.362335,16.818726c0.454926,-0.454895 9.094391,-22.455597 19.198822,-48.890411c10.104431,-26.434784 19.002411,-48.778961 19.773315,-49.653656c0.770874,-0.874725 9.755676,20.379852 19.966278,47.232391c10.210571,26.852539 19.239746,49.523163 20.064819,50.37915c2.189087,2.271027 19.185516,-11.34549 24.112457,-19.317444c4.636932,-7.502716 5.504364,-19.243988 1.927246,-26.086121c-1.26236,-2.414551 -5.753967,-8.180573 -9.981354,-12.813354c-8.654053,-9.483978 -10.846283,-15.702606 -9.172241,-26.018494c2.318115,-14.284973 10.211182,-25.705139 37.230103,-53.86676c39.734131,-41.414612 47.231293,-51.863388 57.022461,-79.472153c5.012695,-14.134567 7.014313,-50.466293 3.797943,-68.936172c-6.353088,-36.482025 -28.190979,-81.506161 -53.178955,-109.641272c-5.14447,-5.79238 -9.353546,-10.904881 -9.353546,-11.36111c0,-1.80738 21.930878,5.62513 35.999664,12.20049c21.190582,9.903929 36.799835,21.697491 57.823181,43.688309c19.712738,20.619854 20.642303,20.79327 20.71347,3.864178c0.015076,-3.592667 0.70575,-6.504166 1.534851,-6.469986c2.213318,0.091248 13.139587,15.291702 20.624878,28.693062c3.585388,6.419121 9.949158,21.34256 14.141785,33.163177l7.622986,21.492043l4.487305,-10.646576c2.468079,-5.855629 5.169189,-9.925659 6.002563,-9.04451c2.843079,3.006271 10.084778,30.676971 12.644653,48.315628l2.554626,17.602951l5.671753,-8.542053c3.119507,-4.69812 6.354309,-8.542023 7.188477,-8.542023c2.682495,0 6.318115,38.543045 5.640564,59.798599c-0.361206,11.333176 -0.20459,20.603836 0.348145,20.601456c0.552734,-0.00235 3.999451,-3.396011 7.659424,-7.541473l6.65448,-7.537155l-0.935791,21.103836c-1.279968,28.865448 -5.781677,46.446808 -18.273682,71.367065c-11.741943,23.424011 -11.759033,23.392365 7.407959,13.759125c8.511353,-4.277802 9.546936,-4.423157 9.546936,-1.339813c0,1.902161 -4.1026,11.891876 -9.116943,22.199402c-10.760742,22.120087 -27.647156,40.597046 -45.525146,49.813263l-11.429443,5.891937l14.444275,8.442047c15.782593,9.224213 29.159302,19.752197 27.395325,21.561188c-2.462585,2.525543 -32.182068,7.650085 -50.636475,8.731262c-10.778015,0.631439 -19.596436,1.429474 -19.596436,1.773407c0,0.343933 3.646484,4.508545 8.103271,9.2547c8.648376,9.209839 24.054993,30.999054 24.054993,34.020325c0,1.000549 -2.035034,1.404175 -4.522278,0.896912c-2.487183,-0.507233 -11.757813,-1.481567 -20.601379,-2.165161c-8.843506,-0.683624 -20.04303,-2.125427 -24.887817,-3.204102c-4.844818,-1.078674 -9.204041,-1.565887 -9.687195,-1.082733c-0.483154,0.483154 1.105103,4.76651 3.529388,9.518585c2.424347,4.752045 6.056488,13.431976 8.071503,19.288727c3.140198,9.127014 3.236267,10.648621 0.672363,10.648621c-6.836792,0 -34.608215,-6.624756 -42.74881,-10.19751l-8.773712,-3.850647l1.244598,4.511719c3.167358,11.481873 7.779297,37.823853 6.794556,38.808533c-13.887634,3.516174 -53.854156,-28.781189 -50.866272,-19.846863l33.521545,100.235596l-125.820251,-87.552063l-128.872574,87.257446z"/>
  <path fill="black" stroke-width="0" marker-start="none" stroke-miterlimit="4" id="path5840" d="m330.632904,544.983948l109.726837,77.291443l-43.948822,-117.386963c-0.986176,-2.634033 4.553528,-9.649384 7.686737,-3.31665c5.460358,11.036377 30.259064,33.94635 45.472107,42.008789c6.979645,3.699036 13.070679,6.345154 13.535583,5.880249c1.815552,-1.815613 -5.451202,-24.361938 -12.120117,-37.604614c-3.862885,-7.670715 -11.088135,-18.937073 -16.056091,-25.036346c-11.138184,-13.674683 -8.51944,-16.884674 3.307404,-4.054077c15.267975,16.563843 42.130249,33.30484 60.674957,37.81369c6.910736,1.680176 6.56192,-0.033813 -3.357178,-16.497986c-9.088593,-15.085571 -20.810242,-28.822968 -33.09491,-38.786194c-14.772858,-11.981171 -9.246063,-13.758301 6.270111,-2.016144c14.38031,10.882568 27.770996,17.017212 48.991852,22.444611c16.227844,4.150391 22.672302,4.832611 22.59082,2.39151c-0.1026,-3.07251 -13.295715,-18.502655 -21.842346,-25.545959c-4.855591,-4.001526 -14.92923,-10.899933 -22.385834,-15.329834c-16.001709,-9.506409 -25.854584,-15.539215 -21.70697,-22.741119c41.866241,-72.696777 1.618958,-131.247925 13.107971,-161.736725c10.83313,-28.748276 40.507782,-16.63382 46.834259,-118.935791c1.712585,-27.8293 -14.668457,-49.321159 -35.893524,-72.484573c-11.041992,-12.050404 -44.488525,-39.843782 -44.488525,-36.969063c7.210266,10.337509 13.993744,20.905411 19.808136,32.168587c21.82428,44.082382 25.451294,86.52301 11.079071,129.637939c-9.862946,29.587524 -24.504852,51.010605 -58.656525,85.822311c-34.727783,35.399017 -39.320648,49.276947 -22.596069,68.277069c17.492157,19.872131 15.17453,34.042816 -9.307129,56.905945c-17.626709,16.461426 -26.449799,23.024506 -27.414337,20.670868l-35.117035,-85.690369l-36.344299,87.161407c-1.176575,2.821655 -38.146393,-32.244354 -42.164734,-38.746155c-9.121231,-16.449371 -1.785904,-30.553101 8.645813,-43.512573c14.136566,-16.92038 8.861603,-30.111908 -26.92337,-67.329498c-36.727631,-38.197983 -53.748672,-66.211838 -61.608246,-101.396973c-4.980743,-22.29744 -3.066635,-59.956383 4.201233,-82.656563c6.207382,-19.387909 16.983154,-41.075066 26.814941,-53.967316c7.872589,-10.323221 6.626602,-9.735931 -15.2043,7.16647c-29.180618,22.592876 -50.348602,52.218571 -57.8535,80.96899c-4.416595,16.919434 -3.104507,50.149429 2.619247,66.335388c7.786377,22.018707 15.69812,36.908905 35.119186,60.725296c9.943665,11.490234 12.051651,31.925995 5.382904,51.348755c-15.768127,45.924622 -2.93602,79.061707 14.213531,114.04895c2.51236,5.125549 -4.637421,15.149231 -20.801804,24.67746c-17.92189,10.564178 -38.112778,28.10199 -42.809387,37.184265l-3.082962,5.961792l9.730865,-1.364594c23.721573,-3.326508 50.553024,-14.706879 66.326569,-28.131866c13.95787,-11.8797 13.565643,-5.402069 -0.450592,7.441254c-7.344849,6.730255 -16.695908,16.818085 -20.780106,22.417419c-9.743393,13.357941 -18.906174,29.319275 -17.58786,30.637573c1.685165,1.685181 15.295105,-3.293579 30.460205,-11.142853c8.451248,-4.374268 20.166306,-13.094238 29.338196,-21.837585c8.397934,-8.005524 15.808472,-14.015961 16.46788,-13.356567c0.659409,0.659393 -3.218094,6.961792 -8.616684,14.00531c-11.38121,14.849091 -20.518982,33.130768 -24.771759,49.56015c-3.46582,13.389282 -2.669388,13.859192 10.519531,6.206421c21.019577,-12.196472 48.413956,-38.558716 48.413956,-46.589874c0,-1.279694 4.744171,-3.30954 4.403625,-2.326691l-42.656143,123.105774l107.897629,-73.77417z"/>
  <path fill="red" stroke-width="10" stroke-miterlimit="4" id="path5838" d="m331.122803,529.608765l-84.204239,58.07428l32.702682,-95.218048l-58.730453,-43.500977l81.299759,-2.553986l29.416595,-72.29599l30.311615,73.300934l79.901489,1.507416l-60.425323,50.411469l33.758667,90.039124l-84.030792,-59.764221z"/>
  <path fill="white" id="path5836" d="m123.31031,100.5205c-0.975098,0.248093 -3.673698,4.516869 -7.78833,12.687431c-12.353882,24.531525 -21.401337,42.056732 -16.283554,70.145432c1.107544,6.078674 1.213326,20.151093 8.2994,38.200195c-18.014664,-14.368118 -23.263786,-50.848145 -23.545998,-61.552872l-0.125618,-5.024719l-2.198318,5.024719c-3.26973,7.588547 -13.942459,44.26889 -1.378105,76.422607c7.248764,18.550461 7.954803,22.578598 16.60685,35.843063c-13.73954,-17.775513 -20.710236,-20.8862 -28.626778,-45.693619l-5.63311,-23.170975l-1.444611,14.634491c-2.74712,27.878922 5.239418,72.387054 27.451904,103.806152c-18.928825,-17.526703 -20.123199,-20.421906 -33.858433,-40.368988c-2.927971,-4.996216 -5.765911,-8.680145 -6.280899,-8.165192c-1.558571,1.558563 3.61903,23.543457 8.730457,37.182983c5.99292,15.991699 26.398445,51.679077 39.710121,63.089233c-13.293297,-1.335815 -16.11058,-3.055847 -26.475273,-7.817261c-8.189648,-3.762268 -13.540516,-6.414917 -14.051365,-5.904053c-2.182281,2.182281 10.783199,21.963959 21.041035,29.708679c12.465286,9.411407 30.473633,19.658173 46.010101,28.948242c-17.55394,6.424377 -36.806068,22.086639 -34.390419,24.502289c5.721832,5.721832 55.032509,4.301819 75.810539,-2.198334c9.176865,-2.048615 23.162338,-10.186462 16.707214,-20.538544c-43.402908,-90.379608 2.544647,-106.688812 -13.441147,-157.336731c-25.866791,-27.239685 -42.558899,-62.502319 -47.923317,-101.248199c-2.332565,-16.847656 -1.302246,-42.124077 2.198318,-54.329842c1.376862,-4.800835 1.637733,-7.039139 0.879333,-6.846191z"/>
  <path fill="white" id="path1893" d="m539.477051,101.651329c0.975098,0.248077 3.673706,4.516861 7.78833,12.687431c12.353882,24.531509 21.401306,42.056717 16.283508,70.145432c-1.107483,6.078674 -1.213318,20.151077 -8.299377,38.200195c18.014648,-14.368118 23.263794,-50.848145 23.546021,-61.552872l0.12561,-5.024734l2.198303,5.024734c3.269714,7.588531 13.942444,44.26886 1.378113,76.422607c-7.248779,18.550461 -7.954834,22.578598 -16.606873,35.843063c13.739563,-17.775528 20.710266,-20.886215 28.62677,-45.693619l5.633118,-23.17099l1.444641,14.634506c2.747131,27.878922 -5.239441,72.387054 -27.451904,103.806152c18.928833,-17.526703 20.123169,-20.421936 33.858398,-40.368988c2.927979,-4.996216 5.76593,-8.680176 6.280945,-8.165192c1.558533,1.558563 -3.619019,23.543457 -8.730469,37.182953c-5.99292,15.99173 -26.398438,51.679108 -39.710144,63.089264c13.293335,-1.335815 16.110596,-3.055847 26.475281,-7.817261c8.189636,-3.762268 13.540527,-6.414917 14.051392,-5.904053c2.182251,2.182281 -10.783203,21.963959 -21.041077,29.708679c-12.465271,9.411377 -30.473633,19.658142 -46.010071,28.948242c17.553955,6.424377 36.80603,22.086639 34.390442,24.502289c-5.721863,5.721832 -55.032532,4.301819 -75.810577,-2.198334c-9.328461,-2.036743 -23.485138,-9.76239 -16.707214,-20.538544c43.402924,-90.379608 -2.544647,-106.688812 13.441162,-157.336731c25.866791,-27.2397 42.558868,-62.502304 47.923309,-101.248215c2.332581,-16.847641 1.302246,-42.124069 -2.198303,-54.329826c-1.376892,-4.80085 -1.637756,-7.039162 -0.879333,-6.846191z"/>
  <text xml:space="preserve" text-anchor="middle" font-family="serif" font-size="24" id="svg_1" y="704" x="162" stroke-width="0" stroke="#000000" fill="#000000"/>
  <text transform="matrix(2.268518516913005,0,0,2.814814805984497,-350.1759200585809,-206.88888788223267) " xml:space="preserve" text-anchor="middle" font-family="serif" font-size="29" id="svg_2" y="319.026316" x="300.053061" stroke-width="0" stroke="#000000" fill="#000000">*RedHack*</text>
 </g>
</svg>